<svg id="visual" viewBox="0 0 1440 600" width="1440" height="600" xmlns="http://www.w3.org/2000/svg" xmlns:xlink="http://www.w3.org/1999/xlink" version="1.1"><rect x="0" y="0" width="1440" height="600" fill="#001220"></rect><path d="M0 221L34.3 226.3C68.7 231.7 137.3 242.3 205.8 237.3C274.3 232.3 342.7 211.7 411.2 211.8C479.7 212 548.3 233 617 235.5C685.7 238 754.3 222 823 215.3C891.7 208.7 960.3 211.3 1028.8 209C1097.3 206.7 1165.7 199.3 1234.2 197.5C1302.7 195.7 1371.3 199.3 1405.7 201.2L1440 203L1440 0L1405.7 0C1371.3 0 1302.7 0 1234.2 0C1165.7 0 1097.3 0 1028.8 0C960.3 0 891.7 0 823 0C754.3 0 685.7 0 617 0C548.3 0 479.7 0 411.2 0C342.7 0 274.3 0 205.8 0C137.3 0 68.7 0 34.3 0L0 0Z" fill="#fa7268"></path><path d="M0 178L34.3 177.8C68.7 177.7 137.3 177.3 205.8 181.5C274.3 185.7 342.7 194.3 411.2 194C479.7 193.7 548.3 184.3 617 177.8C685.7 171.3 754.3 167.7 823 163.7C891.7 159.7 960.3 155.3 1028.8 159.8C1097.3 164.3 1165.7 177.7 1234.2 177.2C1302.7 176.7 1371.3 162.3 1405.7 155.2L1440 148L1440 0L1405.7 0C1371.3 0 1302.7 0 1234.2 0C1165.7 0 1097.3 0 1028.8 0C960.3 0 891.7 0 823 0C754.3 0 685.7 0 617 0C548.3 0 479.7 0 411.2 0C342.7 0 274.3 0 205.8 0C137.3 0 68.7 0 34.3 0L0 0Z" fill="#ef5f67"></path><path d="M0 150L34.3 142.2C68.7 134.3 137.3 118.7 205.8 112.3C274.3 106 342.7 109 411.2 113.2C479.7 117.3 548.3 122.7 617 122.3C685.7 122 754.3 116 823 119.3C891.7 122.7 960.3 135.3 1028.8 143.2C1097.3 151 1165.7 154 1234.2 146.7C1302.7 139.3 1371.3 121.7 1405.7 112.8L1440 104L1440 0L1405.7 0C1371.3 0 1302.7 0 1234.2 0C1165.7 0 1097.3 0 1028.8 0C960.3 0 891.7 0 823 0C754.3 0 685.7 0 617 0C548.3 0 479.7 0 411.2 0C342.7 0 274.3 0 205.8 0C137.3 0 68.7 0 34.3 0L0 0Z" fill="#e34c67"></path><path d="M0 114L34.3 109.3C68.7 104.7 137.3 95.3 205.8 94.5C274.3 93.7 342.7 101.3 411.2 100.8C479.7 100.3 548.3 91.7 617 87.5C685.7 83.3 754.3 83.7 823 88.7C891.7 93.7 960.3 103.3 1028.8 104.8C1097.3 106.3 1165.7 99.7 1234.2 96.7C1302.7 93.7 1371.3 94.3 1405.7 94.7L1440 95L1440 0L1405.7 0C1371.3 0 1302.7 0 1234.2 0C1165.7 0 1097.3 0 1028.8 0C960.3 0 891.7 0 823 0C754.3 0 685.7 0 617 0C548.3 0 479.7 0 411.2 0C342.7 0 274.3 0 205.8 0C137.3 0 68.7 0 34.3 0L0 0Z" fill="#d53867"></path><path d="M0 66L34.3 60.7C68.7 55.3 137.3 44.7 205.8 39.3C274.3 34 342.7 34 411.2 37C479.7 40 548.3 46 617 45.2C685.7 44.3 754.3 36.7 823 34.2C891.7 31.7 960.3 34.3 1028.8 38.7C1097.3 43 1165.7 49 1234.2 53.8C1302.7 58.7 1371.3 62.3 1405.7 64.2L1440 66L1440 0L1405.7 0C1371.3 0 1302.7 0 1234.2 0C1165.7 0 1097.3 0 1028.8 0C960.3 0 891.7 0 823 0C754.3 0 685.7 0 617 0C548.3 0 479.7 0 411.2 0C342.7 0 274.3 0 205.8 0C137.3 0 68.7 0 34.3 0L0 0Z" fill="#c62368"></path></svg>